<?xml version="1.0" encoding="utf-8"?>
<!-- Generator: Adobe Illustrator 25.0.0, SVG Export Plug-In . SVG Version: 6.00 Build 0)  -->
<svg version="1.1" id="Layer_1" xmlns="http://www.w3.org/2000/svg" xmlns:xlink="http://www.w3.org/1999/xlink" x="0px" y="0px"
	 viewBox="0 0 500 500" style="enable-background:new 0 0 500 500;" xml:space="preserve">
<style type="text/css">
	.st0{fill:#FFFFFF;}
	.st1{fill:#ED1C24;}
	.st2{fill:none;}
</style>
<g>
	<path d="M197.1,297.46c0.68,2.33-0.9,3.94-4.07,3.94h-25.75c-2.71,0-4.52-1.07-4.97-3.22l-19.2-73.1l-16.94,43.04
		c-10.17,25.95-20.56,33.64-35.92,36.87l-31.85-79.99l-10.84,41.16c-6.78,26.31-24.17,38.83-45.41,38.83l36.83-122.23
		c0.68-1.97,2.26-3.04,4.97-3.04h23.27c2.49,0,4.29,1.07,4.97,3.04l28.35,73.01l28.8-73.01c0.68-1.97,2.49-3.04,4.97-3.04h23.27
		c2.71,0,4.29,1.07,4.97,3.04L197.1,297.46z"/>
</g>
<ellipse class="st0" cx="184.36" cy="283.71" rx="34.43" ry="33.27"/>
<g>
	<path d="M186.28,260.67l2.41,8.51c0.34,1.2-0.43,1.98-1.94,2.05c-1.82,0.16-3.39,0.42-4.81,0.84c-5.48,1.59-7.84,5.25-6.97,10.67
		l4.92,17.36c0.32,1.12-0.22,1.92-1.54,2.31l-11.16,3.23c-1.32,0.38-2.2-0.01-2.52-1.13l-10.5-37.04
		c6.39-0.69,11.49,0.63,15.03,3.83c1.64-6.43,6.07-9.94,11.45-11.5c1.12-0.32,2.38-0.5,3.44-0.62
		C185.29,259.1,186.02,259.73,186.28,260.67z"/>
</g>
<ellipse class="st1" cx="100.4" cy="161.48" rx="21.66" ry="21.47"/>
<ellipse class="st1" cx="196.75" cy="296.01" rx="5.91" ry="5.86"/>
<g>
	<path d="M212.37,224.76c-0.98,0-1.51-0.49-1.51-1.4v-44.82c0-0.91,0.53-1.4,1.51-1.4h12.22c19,0,27.75,10.37,27.75,23.81
		s-8.67,23.81-27.75,23.81H212.37z M222.17,215.24h3.47c10.93,0,15.38-6.37,15.38-14.29c0-7.91-4.37-14.29-15.38-14.29h-3.47V215.24
		z"/>
	<path d="M268.25,227l-12.89-31.52c-0.38-0.98,0.08-1.61,1.21-1.61h8.29c0.83,0,1.43,0.35,1.73,1.12l7.39,20.94l4.07-11.42
		c2.79-7.77,7.92-11.35,15.68-11.35l-15.76,38.03c-3.17,7.56-8.22,11.07-16.29,11.07L268.25,227z"/>
	<path d="M331.91,206.83v16.53c0,0.91-0.53,1.4-1.51,1.4h-8.3c-0.98,0-1.51-0.49-1.51-1.4v-16.53c0-3.64-1.51-5.67-5.05-5.67
		c-3.2,0-5.81,2.35-6.26,6.2v16c0,0.91-0.53,1.4-1.51,1.4h-8.29c-0.98,0-1.51-0.49-1.51-1.4v-30.19c4.45,0.84,7.69,2.94,9.54,6.06
		c3.43-4.69,7.5-6.48,11.88-6.48C328.29,192.75,331.91,198.43,331.91,206.83z"/>
	<path d="M376.55,193.17v32.29c-4.37-0.42-7.54-2.31-9.39-5.74c-2.94,3.85-7.62,6.16-13.31,6.16c-9.8,0-16.59-6.79-16.59-16.6
		c0-9.73,6.79-16.53,16.59-16.53c5.69,0,10.37,2.31,13.31,6.13C369.01,195.49,372.18,193.59,376.55,193.17z M365.24,209.35
		c0-4.76-3.32-8.12-7.92-8.12c-4.6,0-7.92,3.36-7.92,8.12c0,4.76,3.32,8.12,7.92,8.12C361.92,217.48,365.24,214.12,365.24,209.35z"
		/>
	<path d="M439.6,204.45v18.91c0,0.91-0.53,1.4-1.51,1.4h-8.29c-0.98,0-1.51-0.49-1.51-1.4v-15.41c0-4.41-1.06-6.79-5.13-6.79
		c-4.07,0-5.81,2.38-5.81,6.79v15.41c0,0.91-0.53,1.4-1.51,1.4h-8.29c-0.98,0-1.51-0.49-1.51-1.4v-15.41c0-4.41-1.28-6.79-5.05-6.79
		c-3.43,0-5.39,2.21-5.81,5.81v16.39c0,0.91-0.53,1.4-1.51,1.4h-8.29c-0.98,0-1.51-0.49-1.51-1.4v-30.19
		c4.03,0.77,7.05,2.52,8.94,5.18c3.28-3.54,7.84-5.6,12.25-5.6c3.66,0,7.73,0.98,9.88,4.87c3.17-3.57,6.82-4.87,11.84-4.87
		C435.45,192.75,439.6,197.87,439.6,204.45z"/>
	<path d="M443.3,182.11c0-3.71,4.15-5.67,8.29-5.67c4.07,0,8.29,1.96,8.29,5.67c0,3.78-4.22,5.67-8.29,5.67
		C447.45,187.78,443.3,185.89,443.3,182.11z M447.98,224.76c-0.98,0-1.51-0.49-1.51-1.4v-30.19c7.31,1.4,11.31,6.09,11.31,13.31
		v16.88c0,0.91-0.53,1.4-1.51,1.4H447.98z"/>
	<path d="M463.06,209.28c0-9.17,6.64-16.53,17.72-16.53c10.1,0,16.74,5.18,18.02,12.05c0.15,0.91-0.45,1.47-1.43,1.47h-8.29
		c-0.91,0-1.36-0.42-1.58-1.26c-0.68-2.66-2.49-4.13-5.88-4.13c-5.13,0-7.24,4.34-7.24,8.4c0,4.55,2.11,8.47,7.24,8.47
		c3.39,0,5.2-1.47,5.88-4.13c0.23-0.84,0.68-1.26,1.58-1.26h8.29c0.98,0,1.58,0.42,1.43,1.12c-1.06,7-7.77,12.4-18.02,12.4
		C469.7,225.88,463.06,218.53,463.06,209.28z"/>
	<path d="M247.89,291.16c0,7.91-6.11,13.1-14.86,13.1c-6.03,0-9.88-3.64-10.86-9.1h6.94c5.13,0,7.47-2.24,7.47-5.74
		c0-3.43-2.41-5.74-6.71-5.74h-7.69v6.79c0,7.84-4.07,13.1-11.31,14.5v-47.62c0-0.91,0.53-1.4,1.51-1.4H227
		c11.16,0,17.42,4.55,17.42,12.61c0,4.27-2.34,7.91-6.11,9.46C244.49,279.46,247.89,283.66,247.89,291.16z M227,275.26
		c4.37,0,6.33-1.82,6.33-5.18c0-3.29-1.89-5.04-6.33-5.04h-4.83v10.23H227z"/>
	<path d="M276.85,273.86v6.93c0,0.98-0.68,1.4-1.73,1.12c-1.28-0.28-2.41-0.42-3.47-0.42c-4.07,0-6.41,2.24-6.86,6.51v14.15
		c0,0.91-0.53,1.4-1.51,1.4h-8.29c-0.98,0-1.51-0.49-1.51-1.4v-30.19c4.53,0.88,7.77,2.98,9.58,6.16c2.38-4.48,6.11-6.16,10.11-6.16
		c0.83,0,1.73,0.14,2.49,0.28C276.47,272.46,276.85,273.09,276.85,273.86z"/>
	<path d="M278.59,260.9c0-3.71,4.15-5.67,8.29-5.67c4.07,0,8.29,1.96,8.29,5.67c0,3.78-4.22,5.67-8.29,5.67
		C282.74,266.57,278.59,264.68,278.59,260.9z M283.26,303.55c-0.98,0-1.51-0.49-1.51-1.4v-30.19c7.31,1.4,11.31,6.09,11.31,13.31
		v16.88c0,0.91-0.53,1.4-1.51,1.4H283.26z"/>
	<path d="M337.71,271.97v34.32c0,10.16-7.92,14.78-19.23,14.78c-9.28,0-18.02-3.15-19.3-12.12c-0.15-0.91,0.45-1.47,1.43-1.47h8.29
		c0.9,0,1.43,0.42,1.66,1.33c0.75,3.01,3.54,4.48,8.07,4.48c4.98,0,7.77-2.1,7.77-7.07v-5.6c-2.87,2.59-6.79,4.06-11.39,4.06
		c-9.8,0-16.59-6.79-16.59-16.6c0-9.74,6.79-16.53,16.59-16.53c5.5,0,10.07,2.14,13.01,5.78
		C329.83,273.82,333.11,271.97,337.71,271.97z M326.4,288.15c0-4.76-3.32-8.12-7.92-8.12c-4.6,0-7.92,3.36-7.92,8.12
		s3.32,8.12,7.92,8.12C323.08,296.27,326.4,292.91,326.4,288.15z"/>
	<path d="M379.04,286.04v16.11c0,0.91-0.53,1.4-1.51,1.4h-8.29c-0.98,0-1.51-0.49-1.51-1.4v-16.11c0-3.64-1.51-5.6-5.05-5.6
		c-3.54,0-6.33,3.5-6.33,7.7v14.01c0,0.91-0.53,1.4-1.51,1.4h-8.29c-0.98,0-1.51-0.49-1.51-1.4v-51.13
		c7.31,1.4,11.31,6.09,11.31,13.31v12.08c2.26-2.63,5.81-4.45,10.18-4.45C375.42,271.97,379.04,277.64,379.04,286.04z"/>
	<path d="M405.06,272.67c0.98,0,1.51,0.49,1.51,1.4v5.32c0,0.91-0.53,1.4-1.51,1.4h-4.9v21.36c0,0.91-0.53,1.4-1.51,1.4h-8.29
		c-0.98,0-1.51-0.49-1.51-1.4v-21.36h-4.83c-0.98,0-1.51-0.49-1.51-1.4v-5.32c0-0.91,0.53-1.4,1.51-1.4h4.83
		c0-7.21,4-11.91,11.31-13.31v13.31H405.06z"/>
</g>
<line class="st2" x1="0" y1="182.81" x2="0.71" y2="182.1"/>
<circle class="st1" cx="286.94" cy="261.53" r="8.5"/>
<circle class="st1" cx="452.14" cy="182.95" r="8.59"/>
<g>
</g>
<g>
</g>
<g>
</g>
<g>
</g>
<g>
</g>
<g>
</g>
</svg>
